<svg width="20" height="20" viewBox="0 0 20 20" fill="none" xmlns="http://www.w3.org/2000/svg">
<path d="M14.1666 15.0001C14.6086 15.0001 15.0325 15.1757 15.3451 15.4882C15.6577 15.8008 15.8333 16.2247 15.8333 16.6667C15.8333 17.1088 15.6577 17.5327 15.3451 17.8453C15.0325 18.1578 14.6086 18.3334 14.1666 18.3334C13.7246 18.3334 13.3006 18.1578 12.9881 17.8453C12.6755 17.5327 12.4999 17.1088 12.4999 16.6667C12.4999 15.7417 13.2416 15.0001 14.1666 15.0001ZM0.833252 1.66675H3.55825L4.34159 3.33341H16.6666C16.8876 3.33341 17.0996 3.42121 17.2558 3.57749C17.4121 3.73377 17.4999 3.94573 17.4999 4.16675C17.4999 4.30841 17.4583 4.45008 17.3999 4.58341L14.4166 9.97508C14.1333 10.4834 13.5833 10.8334 12.9583 10.8334H6.74992L5.99992 12.1917L5.97492 12.2917C5.97492 12.347 5.99687 12.4 6.03594 12.4391C6.07501 12.4781 6.128 12.5001 6.18325 12.5001H15.8333V14.1667H5.83325C5.39122 14.1667 4.9673 13.9912 4.65474 13.6786C4.34218 13.366 4.16659 12.9421 4.16659 12.5001C4.16659 12.2084 4.24159 11.9334 4.36659 11.7001L5.49992 9.65841L2.49992 3.33341H0.833252V1.66675ZM5.83325 15.0001C6.27528 15.0001 6.6992 15.1757 7.01176 15.4882C7.32432 15.8008 7.49992 16.2247 7.49992 16.6667C7.49992 17.1088 7.32432 17.5327 7.01176 17.8453C6.6992 18.1578 6.27528 18.3334 5.83325 18.3334C5.39122 18.3334 4.9673 18.1578 4.65474 17.8453C4.34218 17.5327 4.16659 17.1088 4.16659 16.6667C4.16659 15.7417 4.90825 15.0001 5.83325 15.0001ZM13.3333 9.16675L15.6499 5.00008H5.11659L7.08325 9.16675H13.3333Z" fill="white"/>
</svg>
