<svg width="719" height="155" viewBox="0 0 719 155" fill="none" xmlns="http://www.w3.org/2000/svg">
<path d="M125.279 152.814C125.446 153.994 126.525 154.806 127.706 154.641L148.911 151.625C150.082 151.458 150.919 150.545 150.761 149.365L136.592 49.4574L111.136 53.0749L125.279 152.814Z" fill="#28CC2D"/>
<path d="M133.28 26.1087C133.113 24.9371 132.034 24.1234 130.861 24.2919L109.648 27.3011C108.477 27.4648 107.639 28.3813 107.806 29.5529L109.931 44.5784L135.388 40.9656L133.28 26.1087Z" fill="#28CC2D"/>
<path d="M100.179 2.27524C100.137 1.09561 99.1412 -0.0390902 97.9574 0.00103345L76.5466 0.760172C75.3629 0.8019 74.4501 2.13721 74.4919 3.32327L75.0068 17.8416L100.699 16.9284L100.179 2.27524Z" fill="#FFBE16"/>
<path d="M101.004 25.5004L75.313 26.4084L79.2454 137.805L104.936 136.897L101.004 25.5004Z" fill="#FFBE16"/>
<path d="M79.7933 153.275C79.835 154.446 80.8135 155.034 81.9989 154.999L103.41 154.236C104.593 154.194 105.522 153.406 105.482 152.227L105.243 145.46L79.5527 146.364L79.7933 153.275Z" fill="#FFBE16"/>
<path d="M68.5535 36.9805C68.5535 35.796 67.5959 34.8379 66.4121 34.8379H36.4197C35.2359 34.8379 34.2783 35.796 34.2783 36.9805V51.7765H68.5551L68.5535 36.9805Z" fill="#D82E3F"/>
<path d="M34.2783 68.9254V152.521C34.2783 153.7 35.2359 154.665 36.4197 154.665H66.4121C67.5959 154.665 68.5535 153.7 68.5535 152.521V68.9254H34.2783Z" fill="#D82E3F"/>
<path d="M0 152.52C0 153.7 0.957613 154.665 2.1414 154.665H23.5634C24.7472 154.665 25.7064 153.7 25.7064 152.52V60.3501H0V152.52Z" fill="#3581D8"/>
<path d="M25.708 19.6231C25.708 18.4386 24.7488 17.4805 23.565 17.4805H2.143C0.959217 17.4805 0 18.4402 0 19.6231V34.6277H25.708V19.6231Z" fill="#3581D8"/>
<path d="M242.922 64.177H219.945V78.2395H240.306V89.4294H219.945V103.449H242.922V114.81H207V52.858H242.922V64.177ZM297.619 114.809L293.118 102.033H267.099L262.598 114.809H249.437L272.243 52.8569H287.976L310.781 114.809H297.621H297.619ZM270.871 91.2711H289.347L280.13 64.9892L270.871 91.2711ZM340.656 115.667C327.368 115.667 316.994 109.278 315.107 97.66L328.396 94.616C329.253 101.562 334.354 105.163 341.17 105.163C346.4 105.163 350.558 102.848 350.515 97.6172C350.472 91.7863 343.613 89.9429 336.069 87.6277C326.981 84.798 317.25 81.454 317.25 70.0498C317.25 58.517 326.681 52.0002 339.112 52.0002C350 52.0002 360.974 56.4161 363.461 68.292L351.03 71.379C349.872 65.2053 345.714 62.5042 339.884 62.5042C334.697 62.5042 330.282 64.6478 330.282 69.7498C330.282 74.5087 336.369 76.0949 343.4 78.1958C352.744 81.0255 363.804 84.6268 363.804 96.9742C363.804 110.136 352.788 115.667 340.656 115.667ZM422.146 52.8569L401.785 85.1402V114.809H388.882V85.4409L368.392 52.8569H382.623L395.269 73.9505L407.958 52.8569H422.146ZM489.577 64.177H466.6V78.2395H486.962V89.4294H466.6V103.449H489.577V114.81H453.655V52.858H489.577V64.177ZM530.256 115.667C512.037 115.667 498.577 103.276 498.577 83.8113C498.577 64.3463 512.037 52 530.256 52C544.059 52 555.118 59.0741 559.534 70.8212L547.531 75.1943C544.788 67.9915 538.229 63.8329 530.256 63.8329C519.582 63.8329 511.395 71.2927 511.395 83.8118C511.395 96.3309 519.582 103.833 530.256 103.833C538.229 103.833 544.788 99.6318 547.531 92.4293L559.534 96.8024C555.119 108.55 544.059 115.667 530.256 115.667ZM597.514 115.667C579.295 115.667 565.834 103.233 565.834 83.8113C565.834 64.347 579.295 52 597.514 52C615.689 52 629.149 64.3474 629.149 83.8113C629.149 103.233 615.689 115.667 597.514 115.667ZM597.514 103.876C608.188 103.876 616.375 96.3736 616.375 83.8119C616.375 71.2931 608.188 63.833 597.514 63.833C586.84 63.833 578.652 71.2929 578.652 83.8119C578.652 96.3738 586.84 103.876 597.514 103.876ZM653.841 103.448H673.26V114.809H640.982V52.8569H653.842L653.841 103.448ZM719 64.177H696.023V78.2395H716.384V89.4294H696.023V103.449H719V114.81H683.078V52.858H719V64.177Z" fill="white"/>
</svg>
