<svg width="24" height="24" viewBox="0 0 24 24" fill="none" xmlns="http://www.w3.org/2000/svg">
<path d="M21.792 17.0859C21.212 16.5059 20.632 15.9159 20.042 15.3359C19.962 15.2559 19.882 15.1659 19.792 15.0859C19.7462 15.0396 19.6917 15.0028 19.6316 14.9777C19.5716 14.9526 19.5071 14.9397 19.442 14.9397C19.3769 14.9397 19.3124 14.9526 19.2523 14.9777C19.1923 15.0028 19.1378 15.0396 19.092 15.0859C19.0451 15.1324 19.0079 15.1877 18.9825 15.2486C18.9572 15.3096 18.9441 15.3749 18.9441 15.4409C18.9441 15.5069 18.9572 15.5723 18.9825 15.6332C19.0079 15.6941 19.0451 15.7494 19.092 15.7959L20.232 16.9359H9.28199C8.69321 16.9359 8.12854 16.702 7.71221 16.2857C7.29588 15.8694 7.06199 15.3047 7.06199 14.7159C7.06199 14.1271 7.29588 13.5625 7.71221 13.1461C8.12854 12.7298 8.69321 12.4959 9.28199 12.4959H12.282C12.7042 12.4959 13.1223 12.4128 13.5123 12.2512C13.9024 12.0896 14.2568 11.8528 14.5553 11.5543C14.8539 11.2557 15.0907 10.9013 15.2523 10.5113C15.4138 10.1212 15.497 9.70312 15.497 9.28092C15.497 8.85872 15.4138 8.44066 15.2523 8.0506C15.0907 7.66053 14.8539 7.30612 14.5553 7.00758C14.2568 6.70904 13.9024 6.47222 13.5123 6.31065C13.1223 6.14908 12.7042 6.06592 12.282 6.06592H7.01199C6.88808 5.4589 6.5432 4.91951 6.04419 4.55233C5.54519 4.18514 4.92763 4.01631 4.31123 4.07858C3.69483 4.14085 3.1235 4.42978 2.70802 4.88935C2.29254 5.34892 2.0625 5.94639 2.0625 6.56592C2.0625 7.18546 2.29254 7.78293 2.70802 8.2425C3.1235 8.70207 3.69483 8.99099 4.31123 9.05326C4.92763 9.11553 5.54519 8.94671 6.04419 8.57952C6.5432 8.21234 6.88808 7.67295 7.01199 7.06592H12.282C12.8694 7.06592 13.4328 7.29929 13.8482 7.71468C14.2636 8.13007 14.497 8.69347 14.497 9.28092C14.497 9.86838 14.2636 10.4318 13.8482 10.8472C13.4328 11.2626 12.8694 11.4959 12.282 11.4959H9.28199C8.85913 11.4959 8.44042 11.5792 8.04975 11.741C7.65908 11.9029 7.30411 12.14 7.00511 12.439C6.7061 12.738 6.46892 13.093 6.3071 13.4837C6.14528 13.8744 6.06199 14.2931 6.06199 14.7159C6.06199 15.1388 6.14528 15.5575 6.3071 15.9482C6.46892 16.3388 6.7061 16.6938 7.00511 16.9928C7.30411 17.2918 7.65908 17.529 8.04975 17.6908C8.44042 17.8526 8.85913 17.9359 9.28199 17.9359H20.242L19.342 18.8359C19.252 18.9159 19.172 19.0059 19.092 19.0859C19.0451 19.1324 19.0079 19.1877 18.9825 19.2486C18.9572 19.3096 18.9441 19.3749 18.9441 19.4409C18.9441 19.5069 18.9572 19.5723 18.9825 19.6332C19.0079 19.6941 19.0451 19.7494 19.092 19.7959C19.1868 19.885 19.3119 19.9346 19.442 19.9346C19.5721 19.9346 19.6972 19.885 19.792 19.7959L21.542 18.0459L21.792 17.7959C21.8389 17.7494 21.8761 17.6941 21.9014 17.6332C21.9268 17.5723 21.9399 17.5069 21.9399 17.4409C21.9399 17.3749 21.9268 17.3096 21.9014 17.2486C21.8761 17.1877 21.8389 17.1324 21.792 17.0859ZM4.56199 8.06592C4.26532 8.06592 3.97531 7.97795 3.72863 7.81313C3.48196 7.64831 3.2897 7.41404 3.17617 7.13995C3.06264 6.86586 3.03293 6.56426 3.09081 6.27329C3.14869 5.98232 3.29155 5.71504 3.50133 5.50526C3.71111 5.29548 3.97838 5.15262 4.26935 5.09475C4.56033 5.03687 4.86193 5.06657 5.13601 5.1801C5.4101 5.29364 5.64437 5.48589 5.80919 5.73257C5.97402 5.97924 6.06199 6.26925 6.06199 6.56592C6.06199 6.96375 5.90395 7.34528 5.62265 7.62658C5.34135 7.90789 4.95981 8.06592 4.56199 8.06592Z" fill="#286CAA"/>
</svg>
