<svg xmlns="http://www.w3.org/2000/svg" height="48" viewBox="0 -960 960 960" width="48"><path d="M440-40q-24 0-45.5-10T358-75L128-320l44-44q14-14 33-19t39-1l96 22v-378q0-25 17.5-42.5T400-800q25 0 42.5 17.5T460-740v500l-130-30 154 158q8 8 18 12.5t22 4.5h216q38 0 64-26t26-64v-240q0-25 17.5-42.5T850-480H600v-60h250q42 0 71 29t29 71v240q0 63-43.5 106.5T800-40H440Zm2-480v-220q0-25 17.5-42.5T502-800q25 0 42.5 17.5T562-740v220h-60Zm130 0v-180q0-25 17.5-42.5T632-760q25 0 42.5 17.5T692-700v180h-60Zm28 280Z"/></svg>