<svg xmlns="http://www.w3.org/2000/svg" height="48" viewBox="0 -960 960 960" width="48"><path d="M346-80q-15 0-29.5-6T291-100L76-315q-12-12-18-26.5T52-371q0-16 6-31t18-26l179-179q11-11 26-17t32-6q16 0 30.5 6t25.5 17l86 86 244-244q-11-23-2.5-47.5T728-856q12-12 27-18t31-6q16 0 31 6t27 18l52 52q12 12 18 27t6 31q0 16-6 31t-18 27q-20 20-44.5 28.5T799-659L556-415l86 86q11 11 16.5 25.5T664-272q0 13-5.5 27T642-220L464-42q-12 12-26.5 17.5T406-18q-15 0-29.5-5.5T350-41l-4-39Zm0 0 44 40-44-40Zm-4-58 204-204-210-210-204 204 210 210Zm366-366 210-210-52-52-210 210 52 52Zm-52-52Zm-314 50ZM346-80l-4-39 44 40-40-1Z"/></svg>