<svg width="20" height="20" viewBox="0 0 20 20" fill="none" xmlns="http://www.w3.org/2000/svg">
<path d="M14.1667 8.33325C15.5474 8.33325 16.6667 7.21396 16.6667 5.83325C16.6667 4.45254 15.5474 3.33325 14.1667 3.33325C12.786 3.33325 11.6667 4.45254 11.6667 5.83325C11.6667 7.21396 12.786 8.33325 14.1667 8.33325Z" stroke="#737373" stroke-width="1.5" stroke-linecap="round" stroke-linejoin="round"/>
<path d="M5.83334 16.6665C7.21406 16.6665 8.33334 15.5472 8.33334 14.1665C8.33334 12.7858 7.21406 11.6665 5.83334 11.6665C4.45263 11.6665 3.33334 12.7858 3.33334 14.1665C3.33334 15.5472 4.45263 16.6665 5.83334 16.6665Z" stroke="#737373" stroke-width="1.5" stroke-linecap="round" stroke-linejoin="round"/>
<path d="M11.6667 11.6666H16.6667V15.8333C16.6667 16.0543 16.5789 16.2662 16.4226 16.4225C16.2663 16.5788 16.0544 16.6666 15.8333 16.6666H12.5C12.279 16.6666 12.067 16.5788 11.9108 16.4225C11.7545 16.2662 11.6667 16.0543 11.6667 15.8333V11.6666ZM3.33334 3.33325H8.33334V7.49992C8.33334 7.72093 8.24555 7.93289 8.08927 8.08917C7.93299 8.24545 7.72102 8.33325 7.50001 8.33325H4.16668C3.94566 8.33325 3.7337 8.24545 3.57742 8.08917C3.42114 7.93289 3.33334 7.72093 3.33334 7.49992V3.33325Z" stroke="#737373" stroke-width="1.5" stroke-linecap="round" stroke-linejoin="round"/>
</svg>
