<svg xmlns="http://www.w3.org/2000/svg" height="48" viewBox="0 -960 960 960" width="48"><path d="m261-526 219-334 219 334H261ZM686-80q-78 0-132-54t-54-132q0-78 54-132t132-54q78 0 132 54t54 132q0 78-54 132T686-80ZM240-80q-78 0-132-54T54-266q0-78 54-132t132-54q78 0 132 54t54 132q0 78-54 132T240-80Zm446-60q53 0 89-36t36-89q0-53-36-89t-89-36q-53 0-89 36t-36 89q0 53 36 89t89 36Zm-446-60q53 0 89-36t36-89q0-53-36-89t-89-36q-53 0-89 36t-36 89q0 53 36 89t89 36Zm202-366h168L480-740 442-566Zm38-174Zm-68 254Zm30 0Z"/></svg>