<svg xmlns="http://www.w3.org/2000/svg" height="48" viewBox="0 -960 960 960" width="48"><path d="M240-160q-50 0-85-35t-35-85H40v-520q0-33 23.5-56.5T120-880h560v160h120l120 160v240h-80q0 50-35 85t-85 35q-50 0-85-35t-35-85H360q0 50-35 85t-85 35Zm0-60q25 0 42.5-17.5T300-280q0-25-17.5-42.5T240-340q-25 0-42.5 17.5T180-280q0 25 17.5 42.5T240-220ZM120-340h32q17-18 39-29t49-11q27 0 49 11t39 29h232v-440H120v440Zm600 180q25 0 42.5-17.5T780-200q0-25-17.5-42.5T720-260q-25 0-42.5 17.5T660-200q0 25 17.5 42.5T720-140ZM680-360h160v-160H680v160Zm0-160h160-160Z"/></svg>