<svg width="82" height="72" viewBox="0 0 82 72" fill="none" xmlns="http://www.w3.org/2000/svg">
<path d="M23.9167 62.943C19.2497 62.6284 14.8152 61.027 11.2465 58.3676C7.67779 55.7082 5.15727 52.1267 4.04486 48.1346C2.93246 44.1424 3.28504 39.9437 5.05226 36.138C6.81949 32.3322 9.911 29.1141 13.8854 26.943C14.731 21.1533 17.9505 15.8325 22.9413 11.9765C27.9321 8.12046 34.3522 5.99341 41 5.99341C47.6479 5.99341 54.068 8.12046 59.0588 11.9765C64.0495 15.8325 67.269 21.1533 68.1147 26.943C72.089 29.1141 75.1806 32.3322 76.9478 36.138C78.715 39.9437 79.0676 44.1424 77.9552 48.1346C76.8428 52.1267 74.3223 55.7082 70.7535 58.3676C67.1848 61.027 62.7504 62.6284 58.0834 62.943V63H23.9167V62.943ZM44.4167 39H54.6667L41 24L27.3334 39H37.5834V51H44.4167V39Z" fill="#1E77CC" fill-opacity="0.79"/>
</svg>
