<svg width="366" height="90" viewBox="0 0 366 90" fill="none" xmlns="http://www.w3.org/2000/svg">
<g clip-path="url(#clip0_485_988)">
<path d="M72.2854 88.1737C72.3817 88.8544 73.0045 89.3229 73.6857 89.2276L85.9213 87.4875C86.5969 87.3912 87.08 86.8643 86.9884 86.1836L78.8132 28.5369L64.125 30.6242L72.2854 88.1737Z" fill="#28CC2D"/>
<path d="M76.902 15.0647C76.8057 14.3887 76.1829 13.9191 75.5063 14.0164L63.2661 15.7527C62.5905 15.8472 62.1074 16.376 62.2036 17.052L63.43 25.7217L78.1181 23.6371L76.902 15.0647Z" fill="#28CC2D"/>
<path d="M57.8037 1.31281C57.7796 0.632164 57.2049 -0.022555 56.5218 0.000596302L44.1678 0.438619C43.4848 0.462696 42.9582 1.23317 42.9822 1.91752L43.2793 10.2946L58.1036 9.76767L57.8037 1.31281Z" fill="#FFBE16"/>
<path d="M58.2797 14.7138L43.4561 15.2376L45.7251 79.5134L60.5487 78.9895L58.2797 14.7138Z" fill="#FFBE16"/>
<path d="M46.0412 88.4395C46.0652 89.1155 46.6298 89.4545 47.3138 89.4341L59.6678 88.9942C60.3508 88.9701 60.8867 88.5155 60.8636 87.8348L60.7257 83.9306L45.9023 84.4519L46.0412 88.4395Z" fill="#FFBE16"/>
<path d="M39.5551 21.3377C39.5551 20.6543 39.0025 20.1014 38.3195 20.1014H21.0139C20.3309 20.1014 19.7783 20.6543 19.7783 21.3377V29.875H39.556L39.5551 21.3377Z" fill="#D82E3F"/>
<path d="M19.7783 39.7699V88.0042C19.7783 88.6849 20.3309 89.2415 21.0139 89.2415H38.3195C39.0025 89.2415 39.5551 88.6849 39.5551 88.0042V39.7699H19.7783Z" fill="#D82E3F"/>
<path d="M0 88.0042C0 88.6849 0.552542 89.2414 1.23558 89.2414H13.5961C14.2791 89.2414 14.8326 88.6849 14.8326 88.0042V34.822H0V88.0042Z" fill="#3581D8"/>
<path d="M14.8335 11.3225C14.8335 10.6391 14.28 10.0862 13.597 10.0862H1.23651C0.553468 10.0862 0 10.64 0 11.3225V19.9802H14.8335V11.3225Z" fill="#3581D8"/>
</g>
<path d="M142.838 39.708H132.068V46.2997H141.612V51.545H132.068V58.1166H142.838V63.4423H126V34.4022H142.838V39.708ZM168.478 63.4418L166.368 57.453H154.171L152.061 63.4418H145.893L156.583 34.4017H163.957L174.648 63.4418H168.479H168.478ZM155.94 52.4083H164.6L160.28 40.0887L155.94 52.4083ZM188.651 63.8437C182.422 63.8437 177.56 60.8493 176.675 55.4031L182.904 53.9763C183.306 57.232 185.697 58.9201 188.892 58.9201C191.344 58.9201 193.293 57.8348 193.273 55.3831C193.252 52.6499 190.038 51.7857 186.501 50.7005C182.241 49.3741 177.68 47.8066 177.68 42.4609C177.68 37.0549 182.101 34.0001 187.928 34.0001C193.031 34.0001 198.175 36.07 199.341 41.6369L193.514 43.0839C192.971 40.19 191.022 38.9238 188.29 38.9238C185.858 38.9238 183.789 39.9287 183.789 42.3202C183.789 44.551 186.642 45.2945 189.937 46.2793C194.318 47.6057 199.502 49.2938 199.502 55.0817C199.502 61.2514 194.338 63.8437 188.651 63.8437ZM226.85 34.4017L217.305 49.5345V63.4418H211.257V49.6754L201.652 34.4017H208.323L214.251 44.2893L220.199 34.4017H226.85ZM258.458 39.708H247.688V46.2997H257.232V51.545H247.688V58.1166H258.458V63.4423H241.62V34.4022H258.458V39.708ZM277.526 63.8437C268.986 63.8437 262.676 58.0358 262.676 48.9116C262.676 39.7873 268.986 34 277.526 34C283.996 34 289.18 37.316 291.25 42.8224L285.624 44.8723C284.338 41.496 281.264 39.5467 277.526 39.5467C272.523 39.5467 268.685 43.0435 268.685 48.9118C268.685 54.7801 272.523 58.2969 277.526 58.2969C281.264 58.2969 284.338 56.3274 285.624 52.9512L291.25 55.0011C289.181 60.5076 283.997 63.8437 277.526 63.8437ZM309.053 63.8437C300.513 63.8437 294.204 58.0156 294.204 48.9116C294.204 39.7876 300.513 34 309.053 34C317.573 34 323.883 39.7879 323.883 48.9116C323.883 58.0154 317.573 63.8437 309.053 63.8437ZM309.053 58.3171C314.057 58.3171 317.895 54.8001 317.895 48.9118C317.895 43.0436 314.057 39.5467 309.053 39.5467C304.05 39.5467 300.212 43.0435 300.212 48.9118C300.212 54.8002 304.05 58.3171 309.053 58.3171ZM335.457 58.1161H344.559V63.4418H329.429V34.4017H335.457L335.457 58.1161ZM366 39.708H355.229V46.2997H364.774V51.545H355.229V58.1166H366V63.4423H349.162V34.4022H366V39.708Z" fill="#606060"/>
<defs>
<clipPath id="clip0_485_988">
<rect width="87" height="89.4349" fill="white"/>
</clipPath>
</defs>
</svg>
