<svg width="492" height="106" viewBox="0 0 492 106" fill="none" xmlns="http://www.w3.org/2000/svg">
<path d="M85.6746 104.505C85.7886 105.312 86.5269 105.867 87.3343 105.754L101.836 103.692C102.637 103.578 103.209 102.953 103.101 102.146L93.4114 33.8224L76.0027 36.2964L85.6746 104.505Z" fill="#28CC2D"/>
<path d="M91.1462 17.8549C91.0321 17.0537 90.2939 16.4972 89.492 16.6125L74.9847 18.6704C74.184 18.7824 73.6113 19.4091 73.7254 20.2103L75.1789 30.4858L92.5876 28.0152L91.1462 17.8549Z" fill="#28CC2D"/>
<path d="M68.5095 1.55597C68.481 0.749253 67.7998 -0.0267326 66.9902 0.000706749L52.348 0.51986C51.5385 0.548396 50.9143 1.46158 50.9428 2.27269L51.295 12.2013L68.8649 11.5768L68.5095 1.55597Z" fill="#FFBE16"/>
<path d="M69.0737 17.439L51.5044 18.0599L54.1937 94.2408L71.763 93.6198L69.0737 17.439Z" fill="#FFBE16"/>
<path d="M54.5683 104.82C54.5969 105.621 55.266 106.023 56.0767 105.999L70.7189 105.478C71.5284 105.449 72.1636 104.91 72.1361 104.103L71.9727 99.4761L54.4038 100.094L54.5683 104.82Z" fill="#FFBE16"/>
<path d="M46.8817 25.2899C46.8817 24.4799 46.2268 23.8246 45.4172 23.8246H24.9063C24.0968 23.8246 23.4419 24.4799 23.4419 25.2899V35.4084H46.8828L46.8817 25.2899Z" fill="#D82E3F"/>
<path d="M23.4419 47.136V104.304C23.4419 105.111 24.0968 105.771 24.9063 105.771H45.4172C46.2268 105.771 46.8817 105.111 46.8817 104.304V47.136H23.4419Z" fill="#D82E3F"/>
<path d="M0 104.304C0 105.111 0.654884 105.771 1.46444 105.771H16.1143C16.9239 105.771 17.5798 105.111 17.5798 104.304V41.2716H0V104.304Z" fill="#3581D8"/>
<path d="M17.5809 13.4196C17.5809 12.6096 16.925 11.9544 16.1154 11.9544H1.46554C0.655981 11.9544 0 12.6107 0 13.4196V23.6809H17.5809V13.4196Z" fill="#3581D8"/>
<path d="M187.012 58.8009H172.293V67.8097H185.337V74.9782H172.293V83.9594H187.012V91.2378H164V51.5497H187.012V58.8009ZM222.053 91.2371L219.169 83.0524H202.501L199.617 91.2371H191.186L205.797 51.549H215.875L230.485 91.2371H222.054H222.053ZM204.917 76.158H216.753L210.849 59.3212L204.917 76.158ZM249.624 91.7864C241.11 91.7864 234.465 87.694 233.256 80.2509L241.769 78.3009C242.318 82.7504 245.586 85.0574 249.953 85.0574C253.303 85.0574 255.967 83.5743 255.939 80.2235C255.912 76.4881 251.518 75.3072 246.685 73.824C240.863 72.0112 234.629 69.869 234.629 62.5632C234.629 55.175 240.671 51.0001 248.634 51.0001C255.61 51.0001 262.64 53.8291 264.233 61.4371L256.269 63.4147C255.528 59.4596 252.864 57.7293 249.129 57.7293C245.806 57.7293 242.978 59.1025 242.978 62.3709C242.978 65.4197 246.877 66.4358 251.381 67.7817C257.368 69.5945 264.453 71.9016 264.453 79.8116C264.453 88.2435 257.395 91.7864 249.624 91.7864ZM301.828 51.549L288.784 72.2304V91.2371H280.518V72.4231L267.391 51.549H276.509L284.61 65.062L292.739 51.549H301.828ZM345.026 58.8009H330.306V67.8097H343.35V74.9782H330.306V83.9594H345.026V91.2378H322.014V51.5497H345.026V58.8009ZM371.086 91.7864C359.415 91.7864 350.791 83.8489 350.791 71.3791C350.791 58.9094 359.414 51 371.086 51C379.928 51 387.013 55.5319 389.842 63.0573L382.153 65.8588C380.395 61.2446 376.194 58.5804 371.086 58.5804C364.248 58.5804 359.003 63.3594 359.003 71.3794C359.003 79.3995 364.248 84.2058 371.086 84.2058C376.194 84.2058 380.395 81.5141 382.153 76.9L389.842 79.7015C387.014 87.2271 379.929 91.7864 371.086 91.7864ZM414.173 91.7864C402.502 91.7864 393.878 83.8214 393.878 71.3791C393.878 58.9098 402.501 51 414.173 51C425.817 51 434.439 58.9101 434.439 71.3791C434.439 83.8211 425.817 91.7864 414.173 91.7864ZM414.173 84.2333C421.011 84.2333 426.256 79.4268 426.256 71.3795C426.256 63.3596 421.011 58.5805 414.173 58.5805C407.335 58.5805 402.09 63.3595 402.09 71.3795C402.09 79.427 407.335 84.2333 414.173 84.2333ZM450.258 83.9587H462.698V91.2371H442.019V51.549H450.258L450.258 83.9587ZM492 58.8009H477.28V67.8097H490.324V74.9782H477.28V83.9594H492V91.2378H468.988V51.5497H492V58.8009Z" fill="white" fill-opacity="0.75"/>
</svg>
