<svg xmlns="http://www.w3.org/2000/svg" height="48" viewBox="0 -960 960 960" width="48"><path d="M120-120v-200h200v200H120Zm60-60v-80h80v80h-80ZM120-640v-200h200v200H120Zm60-60v-80h80v80h-80Zm280 500v-80h106q11-19 28-33.5t38-21.5v55H460v80h-60Zm80-280v-60h300v60H460Zm-88 148-42-42 86-86-86-86 42-42 128 128-128 128Zm148-308v-60h200v60H520Zm140 420q-48 0-84-36t-36-84q0-48 36-84t84-36q48 0 84 36t36 84q0 48-36 84t-84 36Zm0-60q26 0 43-17t17-43q0-26-17-43t-43-17q-26 0-43 17t-17 43q0 26 17 43t43 17Zm120-360v-80h80v80h-80Zm40 120q-83 0-141.5-58.5T660-700q0-83 58.5-141.5T860-900q83 0 141.5 58.5T1060-700q0 83-58.5 141.5T860-500Zm0-60q59 0 99.5-40.5T1000-700q0-59-40.5-99.5T860-840q-59 0-99.5 40.5T720-700q0 59 40.5 99.5T860-560Z"/></svg>