<svg width="200" height="206" viewBox="0 0 200 206" fill="none" xmlns="http://www.w3.org/2000/svg">
<path d="M166.175 202.698C166.396 204.263 167.828 205.34 169.394 205.121L197.521 201.121C199.075 200.899 200.185 199.688 199.975 198.123L181.181 65.6021L147.415 70.4005L166.175 202.698Z" fill="#28CC2D"/>
<path d="M176.788 34.6315C176.566 33.0774 175.134 31.9981 173.579 32.2216L145.441 36.2132C143.888 36.4304 142.777 37.646 142.998 39.2L145.817 59.1304L179.583 54.3383L176.788 34.6315Z" fill="#28CC2D"/>
<path d="M132.881 3.01796C132.825 1.45325 131.504 -0.0518506 129.934 0.00137081L101.534 1.00832C99.9638 1.06367 98.7531 2.83488 98.8085 4.4081L99.4914 23.6657L133.57 22.4544L132.881 3.01796Z" fill="#FFBE16"/>
<path d="M133.974 33.8247L99.897 35.0291L105.113 182.789L139.191 181.585L133.974 33.8247Z" fill="#FFBE16"/>
<path d="M105.84 203.309C105.895 204.863 107.193 205.642 108.766 205.596L137.166 204.584C138.736 204.529 139.968 203.484 139.915 201.919L139.598 192.944L105.521 194.142L105.84 203.309Z" fill="#FFBE16"/>
<path d="M90.9316 49.0522C90.9316 47.4811 89.6614 46.2102 88.0912 46.2102H48.3082C46.738 46.2102 45.4678 47.4811 45.4678 49.0522V68.6782H90.9337L90.9316 49.0522Z" fill="#D82E3F"/>
<path d="M45.4678 91.4251V202.309C45.4678 203.873 46.738 205.153 48.3082 205.153H88.0912C89.6614 205.153 90.9316 203.873 90.9316 202.309V91.4251H45.4678Z" fill="#D82E3F"/>
<path d="M0 202.309C0 203.873 1.27021 205.153 2.84042 205.153H31.2553C32.8255 205.153 34.0979 203.873 34.0979 202.309V80.0505H0V202.309Z" fill="#3581D8"/>
<path d="M34.1 26.0287C34.1 24.4576 32.8276 23.1867 31.2574 23.1867H2.84255C1.27234 23.1867 0 24.4598 0 26.0287V45.9314H34.1V26.0287Z" fill="#3581D8"/>
</svg>
